<?xml version="1.0" encoding="UTF-8" standalone="no"?>
<!-- Created with Inkscape (http://www.inkscape.org/) -->

<svg
   width="210mm"
   height="297mm"
   viewBox="0 0 210 297"
   version="1.1"
   id="svg1"
   xml:space="preserve"
   sodipodi:docname="logoesc.svg"
   inkscape:version="1.3 (0e150ed6c4, 2023-07-21)"
   xmlns:inkscape="http://www.inkscape.org/namespaces/inkscape"
   xmlns:sodipodi="http://sodipodi.sourceforge.net/DTD/sodipodi-0.dtd"
   xmlns:xlink="http://www.w3.org/1999/xlink"
   xmlns="http://www.w3.org/2000/svg"
   xmlns:svg="http://www.w3.org/2000/svg"><sodipodi:namedview
     id="namedview1"
     pagecolor="#ffffff"
     bordercolor="#000000"
     borderopacity="0.25"
     inkscape:showpageshadow="2"
     inkscape:pageopacity="0.0"
     inkscape:pagecheckerboard="0"
     inkscape:deskcolor="#d1d1d1"
     inkscape:document-units="mm"
     inkscape:zoom="0.73139029"
     inkscape:cx="229.69952"
     inkscape:cy="609.11391"
     inkscape:window-width="1920"
     inkscape:window-height="1017"
     inkscape:window-x="-8"
     inkscape:window-y="-8"
     inkscape:window-maximized="1"
     inkscape:current-layer="g84" /><defs
     id="defs1"><inkscape:path-effect
       effect="spiro"
       id="path-effect84"
       is_visible="true"
       lpeversion="1" /><linearGradient
       id="swatch35"
       inkscape:swatch="solid"><stop
         style="stop-color:#6c7759;stop-opacity:1;"
         offset="0"
         id="stop35" /></linearGradient><inkscape:path-effect
       effect="powerstroke"
       id="path-effect17"
       is_visible="true"
       lpeversion="1.3"
       scale_width="1"
       interpolator_type="CentripetalCatmullRom"
       interpolator_beta="0.75"
       start_linecap_type="round"
       end_linecap_type="round"
       offset_points="8.962199,2.7131546"
       linejoin_type="spiro"
       miter_limit="4"
       not_jump="true"
       sort_points="true"
       message="&lt;b&gt;Ctrl + clic&lt;/b&gt; sobre un nodo existente y muévalo" /><inkscape:path-effect
       effect="simplify"
       id="path-effect16"
       is_visible="true"
       lpeversion="1.3"
       threshold="0.012"
       steps="1"
       smooth_angles="0"
       helper_size="0"
       simplify_individual_paths="false"
       simplify_just_coalesce="false"
       step="1" /><inkscape:path-effect
       effect="powerstroke"
       id="path-effect15"
       is_visible="true"
       lpeversion="1.3"
       scale_width="1"
       interpolator_type="CentripetalCatmullRom"
       interpolator_beta="0.75"
       start_linecap_type="round"
       end_linecap_type="round"
       offset_points="9.0902167,2.7131546"
       linejoin_type="spiro"
       miter_limit="4"
       not_jump="true"
       sort_points="true"
       message="&lt;b&gt;Ctrl + clic&lt;/b&gt; sobre un nodo existente y muévalo" /><inkscape:path-effect
       effect="simplify"
       id="path-effect14"
       is_visible="true"
       lpeversion="1.3"
       threshold="0.012"
       steps="1"
       smooth_angles="0"
       helper_size="0"
       simplify_individual_paths="false"
       simplify_just_coalesce="false"
       step="1" /><inkscape:path-effect
       effect="powerstroke"
       id="path-effect13"
       is_visible="true"
       lpeversion="1.3"
       scale_width="1"
       interpolator_type="CentripetalCatmullRom"
       interpolator_beta="0.75"
       start_linecap_type="round"
       end_linecap_type="round"
       offset_points="61.911999,2.7131546"
       linejoin_type="spiro"
       miter_limit="4"
       not_jump="true"
       sort_points="true"
       message="&lt;b&gt;Ctrl + clic&lt;/b&gt; sobre un nodo existente y muévalo" /><inkscape:path-effect
       effect="simplify"
       id="path-effect12"
       is_visible="true"
       lpeversion="1.3"
       threshold="0.012"
       steps="1"
       smooth_angles="0"
       helper_size="0"
       simplify_individual_paths="false"
       simplify_just_coalesce="false"
       step="1" /><inkscape:path-effect
       effect="powerstroke"
       id="path-effect11"
       is_visible="true"
       lpeversion="1.3"
       scale_width="1"
       interpolator_type="CentripetalCatmullRom"
       interpolator_beta="0.75"
       start_linecap_type="round"
       end_linecap_type="round"
       offset_points="4.6199315,2.7131546"
       linejoin_type="spiro"
       miter_limit="4"
       not_jump="true"
       sort_points="true"
       message="&lt;b&gt;Ctrl + clic&lt;/b&gt; sobre un nodo existente y muévalo" /><inkscape:path-effect
       effect="simplify"
       id="path-effect10"
       is_visible="true"
       lpeversion="1.3"
       threshold="0.012"
       steps="1"
       smooth_angles="0"
       helper_size="0"
       simplify_individual_paths="false"
       simplify_just_coalesce="false"
       step="1" /><inkscape:path-effect
       effect="powerstroke"
       id="path-effect9"
       is_visible="true"
       lpeversion="1.3"
       scale_width="1"
       interpolator_type="CentripetalCatmullRom"
       interpolator_beta="0.75"
       start_linecap_type="round"
       end_linecap_type="round"
       offset_points="50.663634,1.3565773"
       linejoin_type="spiro"
       miter_limit="4"
       not_jump="true"
       sort_points="true"
       message="&lt;b&gt;Ctrl + clic&lt;/b&gt; sobre un nodo existente y muévalo" /><inkscape:path-effect
       effect="simplify"
       id="path-effect8"
       is_visible="true"
       lpeversion="1.3"
       threshold="0.012"
       steps="1"
       smooth_angles="0"
       helper_size="0"
       simplify_individual_paths="false"
       simplify_just_coalesce="false"
       step="1" /><inkscape:path-effect
       effect="powerstroke"
       id="path-effect2"
       is_visible="true"
       lpeversion="1.3"
       scale_width="1"
       interpolator_type="CentripetalCatmullRom"
       interpolator_beta="0.75"
       start_linecap_type="round"
       end_linecap_type="round"
       offset_points="54.628896,5.4263093"
       linejoin_type="spiro"
       miter_limit="4"
       not_jump="true"
       sort_points="true"
       message="&lt;b&gt;Ctrl + clic&lt;/b&gt; sobre un nodo existente y muévalo" /><inkscape:path-effect
       effect="simplify"
       id="path-effect1"
       is_visible="true"
       lpeversion="1.3"
       threshold="0.012"
       steps="1"
       smooth_angles="0"
       helper_size="0"
       simplify_individual_paths="false"
       simplify_just_coalesce="false"
       step="1" /><filter
       inkscape:collect="always"
       style="color-interpolation-filters:sRGB"
       id="filter20"
       x="-0.051267298"
       y="-3.1085492"
       width="1.1025346"
       height="7.2170984"><feGaussianBlur
         inkscape:collect="always"
         stdDeviation="0.982 1.082"
         id="feGaussianBlur20" /></filter><linearGradient
       inkscape:collect="always"
       xlink:href="#swatch35"
       id="linearGradient35"
       x1="1.3460625"
       y1="151.31188"
       x2="117.47866"
       y2="151.31188"
       gradientUnits="userSpaceOnUse" /><clipPath
       clipPathUnits="userSpaceOnUse"
       id="clipPath78"><path
         id="path79"
         style="fill:#ff0000;fill-opacity:1;fill-rule:nonzero;stroke:none;stroke-width:0.275562"
         d="M -27.807196,120.49785 V 138.058 c 0.318783,-0.53141 0.67865,-1.09203 1.133188,-1.73668 3.335871,-4.73113 7.543041,-8.03473 12.584413,-10.31409 3.41748,-1.27076 3.875374,-1.5923 7.4812011,-2.30847 4.9507178,-0.98329 10.0188206,-0.91275 15.0259569,-0.74445 3.318393,0.2068 5.044033,0.28774 8.115227,0.66429 0.605761,-1.11186 1.305994,-2.1439 2.063296,-3.12075 z m 142.510196,0 c -7.9e-4,0.0134 7.9e-4,0.0269 0,0.0404 2.95317,2.37832 5.6609,5.13675 7.3732,8.75569 1.00161,2.11692 1.50059,4.47193 2.25087,6.70789 0.16682,1.81008 0.4716,3.61152 0.50071,5.43033 0.0711,4.44067 -0.95339,8.93036 -2.40899,13.04692 -1.11713,3.15937 -1.85715,4.45462 -3.30603,7.40694 -0.65137,1.17956 -1.33451,2.3371 -2.01782,3.49409 0.28513,0.36799 0.57215,0.73416 0.85673,1.10266 2.83973,3.75389 5.61213,7.5717 8.23718,11.5042 v -57.48908 z m -24.250086,4.36916 c -0.174872,0.12845 0.09816,0.44594 0.147267,0.66877 0.09204,0.24829 0.207229,0.48561 0.304354,0.73155 -0.05502,-0.27737 -0.110689,-0.55509 -0.171555,-0.82965 -0.04646,-0.20961 -0.11552,-0.69154 -0.280066,-0.57067 z m 22.897286,3.41785 c -0.0256,0.10115 -0.0532,0.20173 -0.0775,0.30327 -0.0303,0.12674 -0.11719,0.50703 -0.076,0.384 0.0758,-0.22594 0.1052,-0.45777 0.15347,-0.68727 z M 3.0451336,160.90721 c -0.6613441,0.005 -1.3191721,0.0802 -1.9785558,0.12613 -0.00159,0.006 -0.00267,0.0112 -0.00413,0.0168 -0.35139545,1.3393 -0.67881864,2.68388 -1.00710432,4.03001 -0.72631073,2.91558 -1.31880178,5.86681 -2.00387468,8.7938 -0.1278829,0.52493 -0.2620809,1.04792 -0.3932312,1.57187 4.0763697,-2.95022 8.2275452,-5.78018 12.3797894,-8.60377 2.305677,-1.52717 4.582263,-3.10202 6.844073,-4.70158 -0.579059,-0.12422 -1.16583,-0.26195 -1.726391,-0.35989 -2.866428,-0.50081 -5.7595381,-0.65841 -8.6541746,-0.81789 -1.1492076,-0.0262 -2.3034921,-0.0638 -3.4563983,-0.0555 z m -3.56904744,0.23768 c -0.25130251,0.023 -1.22711406,0.10231 -1.31920656,0.53367 0.487001,-0.0434 0.91723949,-0.2573 1.31920656,-0.53367 z M 63.0389,172.86885 c -2.048933,2.37165 -4.567141,4.69561 -7.664122,6.88839 -0.366526,0.25952 -0.733084,0.51913 -1.099599,0.77865 -3.055603,2.17418 -6.049669,4.44889 -9.029321,6.74321 -5.409804,4.12708 -10.930115,8.07516 -16.574075,11.81701 -5.996129,4.07661 -12.014097,8.12431 -17.721215,12.67301 -1.6138977,1.2043 -3.2475663,2.38198 -4.8975561,3.53053 2.6483105,0.17873 5.2963621,0.3625 7.9467731,0.50172 2.638032,0.15312 5.27423,0.28602 7.914736,0.15976 5.35405,-0.33952 10.698536,-0.83141 16.050113,-1.21477 8.584007,-0.59029 17.183737,-0.83651 25.781152,-1.06062 0.196683,-0.005 0.393419,-0.006 0.590102,-0.0112 -0.08865,-0.5608 -0.186891,-1.12245 -0.270764,-1.67837 -0.179367,-1.91125 -0.27492,-2.52047 -0.29712,-4.47567 -0.0263,-2.3212 0.178979,-4.62831 0.462989,-6.9254 -0.316957,-4.0972 -0.531842,-8.20462 -0.712569,-12.31088 -0.214144,-5.13651 -0.349043,-10.27578 -0.479524,-15.41536 z m 36.750788,30.58464 c 0.04448,0.36499 0.07547,0.73136 0.123497,1.09593 0.275755,2.50995 0.634705,5.67895 0.489345,8.51856 1.25705,-0.0136 2.51407,-0.0342 3.77108,-0.0465 0.23514,-0.002 0.47021,-0.003 0.70534,-0.006 -0.72644,-1.60871 -1.47978,-3.20281 -2.30099,-4.7582 -0.45612,-0.86389 -0.94666,-1.70612 -1.41997,-2.55904 -0.43801,-0.76213 -0.90941,-1.49846 -1.368302,-2.24456 z m -0.960599,3.45373 c -0.0011,0.0163 -0.0045,0.0302 -0.0057,0.0465 -0.03045,0.43549 0.02497,0.71078 0.09353,0.63625 -0.0073,-0.21115 -0.05211,-0.45024 -0.08784,-0.68278 z m 11.741631,44.12599 c -2.02671,0.0116 -4.05358,0.0384 -6.08035,0.0521 -5.308015,0.052 -10.615824,0.11478 -15.923515,0.19733 -2.049623,0.0319 -4.098966,0.0827 -6.148557,0.11716 5.907917,3.54652 7.798587,7.72918 -2.442577,13.36365 -0.414997,0.22832 -0.829803,0.45671 -1.2448,0.68503 -2.221043,1.11115 -4.505733,2.05396 -6.873009,2.73338 -2.778058,0.83533 -5.5891,1.53584 -8.425781,2.09601 -3.922636,0.6927 -7.895339,1.20223 -11.873912,0.79602 -3.824943,-0.44251 -7.615066,-1.20311 -11.213015,-2.73226 -2.930585,-1.27586 -5.781428,-2.7501 -8.406145,-4.67075 -2.075085,-1.45139 -4.134262,-2.96534 -5.896911,-4.85574 v -5.7e-4 c -1.722235,-1.84705 -2.947325,-3.43161 -3.773152,-4.80528 -3.325137,0.0873 -6.647329,0.0348 -9.969249,-0.1878 -3.7842102,-0.19946 -7.5661744,-0.43754 -11.34633165,-0.71362 -4.15637415,-0.24765 -8.31330925,-0.50216 -12.47693535,-0.5488 -4.581229,-0.0598 -9.162418,-0.0608 -13.743953,-0.0521 h -2.539723 v 39.3706 H 126.18885 v -40.43064 c -1.06228,0.0144 -2.15526,-0.007 -3.28743,-0.0751 -2.08233,-0.1259 -4.16524,-0.25867 -6.25087,-0.29935 -2.02656,-0.0471 -4.05313,-0.0508 -6.07983,-0.0392 z" /></clipPath></defs><g
     inkscape:label="Capa 1"
     inkscape:groupmode="layer"
     id="layer1"
     style="display:inline"><g
       inkscape:groupmode="layer"
       id="layer4"
       inkscape:label="antorcha"><g
         inkscape:groupmode="layer"
         id="layer2"
         inkscape:label="tuerca"
         style="display:inline" /></g><g
       inkscape:groupmode="layer"
       id="layer3"
       inkscape:label="libro"
       style="display:inline"><g
         id="g84"><path
           id="path2"
           style="display:inline;fill:#a5babb;fill-opacity:1;stroke-width:1.045;stroke-linecap:round;stroke-linejoin:round;paint-order:stroke fill markers"
           d="m 104.98338,119.51995 -1.98954,11.66699 -9.85779,-0.2713 -6.23993,-10.21953 -9.134326,1.89911 1.356507,11.7569 -6.783049,2.44171 -9.134326,-9.40562 -8.410856,5.96914 4.341337,9.49606 -5.697844,4.25039 -11.304736,-7.41557 -7.05435,6.1495 8.320423,7.32565 -0.180868,2.71301 -4.159953,4.2509 -12.842627,-4.97437 -4.973856,7.41608 9.94823,6.51175 0.09043,2.53215 -2.622579,3.88865 -13.023495,-1.17564 -3.346048,7.68739 12.661242,3.79821 0.180867,6.33088 -14.108182,2.07998 -0.180867,8.04912 14.289049,1.26607 0.361735,7.05435 -11.756905,4.61212 1.899109,6.87349 13.113928,-0.2713 3.798218,4.88342 -10.852567,7.32565 5.335591,6.78305 11.21482,-3.79874 6.149495,5.60741 -8.229989,8.59173 6.963916,6.05906 10.762134,-7.41557 6.059579,4.25039 -3.527434,10.03866 7.687386,4.52221 9.315194,-8.95346 6.421314,1.98954 -0.72347,11.57604 8.682157,2.26084 5.335592,-10.21953 8.953454,1.35651 1.62781,10.03866 10.76213,0.36173 0.90434,-12.2995 8.13956,0.18086 5.3361,10.6717 9.0439,-3.07474 -1.26608,-10.30997 8.04861,-2.71301 7.95869,8.13904 8.95345,-3.34605 -5.15472,-10.21953 6.33036,-4.97386 11.21431,7.59644 6.60218,-6.51123 -8.32043,-8.13956 4.52221,-5.78828 12.66124,4.52221 5.24516,-6.51175 -10.30997,-7.68739 2.3518,-5.96862 13.92731,0.99477 2.26085,-7.23522 -12.57081,-4.97386 0.99477,-6.51174 13.83688,-1.35651 v -8.22999 l -13.65601,-0.8139 -1.44694,-7.14479 13.65601,-4.61212 -3.52691,-7.23521 -13.92732,1.0852 -3.34657,-5.96914 12.02821,-7.05384 -5.69733,-7.23521 -11.4856,4.52168 -6.69261,-5.33559 8.68215,-7.95869 -7.05435,-6.69261 -10.03866,7.14478 -7.05435,-4.79299 5.06481,-9.85779 -8.68216,-3.88917 -7.95869,8.77259 -8.04912,-1.89911 1.35702,-11.39517 -10.12909,-2.35128 -5.24568,12.20908 -7.77782,-0.72347 0.18087,-12.29951 z m 2.78123,33.46824 c 29.94864,-0.24588 54.4955,19.56187 54.89277,44.29497 l 0.005,0.59532 c -5e-5,24.73542 -24.22692,44.81035 -54.17705,44.89235 -10.64641,0.0291 -20.589933,-2.47192 -28.993918,-6.81907 -15.237795,-7.8821 -25.414266,-21.83331 -25.542285,-37.77563 -0.198473,-24.73496 23.86692,-44.94213 53.815833,-45.18794 z"
           sodipodi:nodetypes="ccccccccccccccccccccccccccccccccccccccccccccccccccccccccccccccccccccccccccccccccccccccccccccccccccccccssccc" /><text
           xml:space="preserve"
           style="display:inline;font-style:normal;font-variant:normal;font-weight:normal;font-stretch:normal;font-size:14.1111px;font-family:'Palatino Linotype';-inkscape-font-specification:'Palatino Linotype, Normal';font-variant-ligatures:normal;font-variant-caps:normal;font-variant-numeric:normal;font-variant-east-asian:normal;opacity:0.970588;fill:#000000;fill-opacity:1;stroke:none;stroke-width:0.3;stroke-linecap:round;stroke-linejoin:round;stroke-dasharray:none;stroke-opacity:1;paint-order:stroke fill markers"
           id="text69"
           transform="matrix(1.4539605,-0.06819365,0.06835928,1.4574919,-63.869848,-109.77298)"><textPath
             xlink:href="#path84"
             id="textPath84"><tspan
               id="tspan69"
               style="fill:#000000;fill-opacity:1;stroke-width:0.3">San Nicolás</tspan></textPath></text><path
           style="display:inline;opacity:0.970588;fill:#000000;fill-opacity:0;stroke:none;stroke-width:0.3;stroke-linecap:round;stroke-linejoin:round;stroke-dasharray:none;stroke-opacity:1;paint-order:stroke fill markers"
           d="m -176.89768,205.838 c 0.14206,20.59876 8.76299,41.0122 23.42897,55.47728 14.66598,14.46507 35.19638,22.80363 55.795143,22.66157 20.598764,-0.14206 41.012204,-8.76299 55.477278,-23.42897 14.465074,-14.66597 22.803635,-35.19638 22.661575,-55.79514 -0.14206,-20.59876 -8.762993,-41.0122 -23.42897,-55.47728 -14.665978,-14.46507 -35.196379,-22.80363 -55.795143,-22.66157 -20.598763,0.14206 -41.012203,8.76299 -55.477273,23.42897 -14.46508,14.66597 -22.80364,35.19638 -22.66158,55.79514 z"
           id="path84"
           transform="matrix(0.44566239,-0.5849724,0.80584641,0.36285207,-14.043462,72.626253)"
           inkscape:original-d="m -176.89768,205.838 c -52.45433,0.36175 104.908644,-0.72351 157.362966,-1.08526 52.454323,-0.36176 -104.908646,0.7235 -157.362966,1.08526 z"
           inkscape:path-effect="#path-effect84" /><g
           id="g46"
           transform="translate(2.5322772,1.2661387)"
           style="display:inline;fill:#ff712f;fill-opacity:1"><path
             style="opacity:1;fill:#ff712f;fill-opacity:1;stroke:none;stroke-width:0.347343;stroke-linecap:round;stroke-linejoin:round;stroke-dasharray:none;stroke-opacity:1;paint-order:stroke fill markers"
             id="path40"
             sodipodi:type="arc"
             sodipodi:cx="106.66244"
             sodipodi:cy="242.21939"
             sodipodi:rx="4.3166027"
             sodipodi:ry="3.7090809"
             sodipodi:start="0"
             sodipodi:end="6.2699291"
             sodipodi:open="true"
             sodipodi:arc-type="arc"
             d="m 110.97904,242.21939 a 4.3166027,3.7090809 0 0 1 -4.3023,3.70906 4.3166027,3.7090809 0 0 1 -4.33081,-3.68448 4.3166027,3.7090809 0 0 1 4.27359,-3.73348 4.3166027,3.7090809 0 0 1 4.35914,3.65973" /><path
             style="opacity:1;fill:#ff712f;fill-opacity:1;stroke:none;stroke-width:0.3;stroke-linecap:round;stroke-linejoin:round;stroke-dasharray:none;stroke-opacity:1;paint-order:stroke fill markers"
             d="m 103.69439,234.82319 c 3.35976,-2.13179 4.895,-0.63648 6.07522,0.0639 -0.91299,1.36657 -1.72038,2.73842 -0.95924,4.1887 -0.90583,0.47362 -1.70597,1.02274 -4.34858,0.2558 0.0334,-2.1174 -0.12187,-3.83378 -0.7674,-4.5084 z"
             id="path41"
             sodipodi:nodetypes="ccccc" /><path
             style="opacity:1;fill:#ff712f;fill-opacity:1;stroke:none;stroke-width:0.3;stroke-linecap:round;stroke-linejoin:round;stroke-dasharray:none;stroke-opacity:1;paint-order:stroke fill markers"
             d="m 102.74111,234.87654 c -1.1181,0.21982 -1.51231,-0.13949 -1.73418,-0.63666 0.10427,-1.76509 1.54399,-2.9618 5.3419,-2.62481 6.10252,-0.72752 5.46336,0.94156 5.72329,2.33915 -0.39948,0.39827 -0.70716,0.95674 -1.53877,0.9805 -5.25342,-0.5492 -5.19859,-0.0689 -7.79224,-0.0582 z"
             id="path42"
             sodipodi:nodetypes="cccccc" /><path
             style="opacity:1;fill:#ff712f;fill-opacity:1;stroke:none;stroke-width:0.3;stroke-linecap:round;stroke-linejoin:round;stroke-dasharray:none;stroke-opacity:1;paint-order:stroke fill markers"
             d="m 96.1803,137.83159 21.23129,-0.12789 -8.18556,93.94206 -4.73227,0.064 z"
             id="path43" /><path
             style="opacity:1;fill:#ff712f;fill-opacity:1;stroke:none;stroke-width:0.3;stroke-linecap:round;stroke-linejoin:round;stroke-dasharray:none;stroke-opacity:1;paint-order:stroke fill markers"
             d="m 95.715896,137.71294 21.592184,-0.11303 c 0.47107,-0.1215 2.00563,-2.92171 -0.56524,-3.9793 l -20.393876,-0.18088 c -2.256858,1.41178 -1.619303,3.56346 -0.633068,4.27321 z"
             id="path44"
             sodipodi:nodetypes="ccccc" /><path
             style="opacity:1;fill:#ff712f;fill-opacity:1;stroke:none;stroke-width:0.3;stroke-linecap:round;stroke-linejoin:round;stroke-dasharray:none;stroke-opacity:1;paint-order:stroke fill markers"
             d="m 90.868071,128.14519 c 0.09996,2.20146 2.20515,3.92341 5.31326,5.04194 l 20.755639,0.0452 c 1.98366,-1.51964 3.90211,-3.07515 4.7028,-5.24543 z"
             id="path45"
             sodipodi:nodetypes="ccccc" /><path
             style="opacity:1;fill:#ff712f;fill-opacity:1;stroke:none;stroke-width:0.3;stroke-linecap:round;stroke-linejoin:round;stroke-dasharray:none;stroke-opacity:1;paint-order:stroke fill markers"
             d="m 126.19006,123.01053 c 0.82376,3.99263 -1.59395,4.74134 -2.10113,4.88578 l -34.826142,0.10545 c -2.82412,-0.60355 -1.665128,-3.09926 -1.808769,-4.90629 z"
             id="path46"
             sodipodi:nodetypes="ccccc" /></g><g
           id="g64"
           transform="translate(3.7984167,2.9844697)"
           style="display:inline"><g
             id="g59"
             transform="translate(-4.1355631,-1.266139)"
             style="opacity:1;fill:#2f36ff;fill-opacity:0.364964"><path
               style="opacity:1;fill:#ffff00;fill-opacity:1;stroke:none;stroke-width:0.3;stroke-linecap:round;stroke-linejoin:round;stroke-dasharray:none;stroke-opacity:1;paint-order:stroke fill markers"
               d="m 85.372807,101.29628 c 0.260089,-0.8953 0.519615,-1.790593 1.278993,-2.68589 1.265249,0.956452 2.532949,1.89819 3.964882,1.85454 -1.38795,-17.523229 11.631858,-27.683175 17.650108,-40.671991 7.55482,11.442274 1.67352,16.951719 -3.51723,22.766082 1.62453,-0.208221 4.57117,-2.945737 4.79622,1.91849 -0.76873,4.370714 -1.21243,8.808099 4.54043,14.516575 1.49722,-2.825438 0.79915,-2.906766 1.08714,-4.220678 3.98935,4.931451 9.51679,6.391072 10.9354,11.319092 l -2.81379,1.91849 -34.40492,1.85454 z"
               id="path56"
               sodipodi:nodetypes="cccccccccccc" /><path
               style="opacity:1;fill:#ffff00;fill-opacity:1;stroke:none;stroke-width:0.3;stroke-linecap:round;stroke-linejoin:round;stroke-dasharray:none;stroke-opacity:1;paint-order:stroke fill markers"
               d="m 87.227349,94.869332 c -0.688138,-2.409005 -0.754576,-4.179268 -0.2558,-6.842612 0.369207,-2.232731 2.680177,-3.300607 3.900929,-4.604379 0.788096,5.840145 -1.031062,2.296032 -3.645129,11.446991 z"
               id="path57"
               sodipodi:nodetypes="cccc" /><path
               style="opacity:1;fill:#ffff00;fill-opacity:1;stroke:none;stroke-width:0.3;stroke-linecap:round;stroke-linejoin:round;stroke-dasharray:none;stroke-opacity:1;paint-order:stroke fill markers"
               d="m 120.22538,97.68312 c 0.47659,-2.881564 -1.51874,-9.916577 3.77303,-5.435724 1.54897,-2.371263 -0.13955,-4.691702 -4.22069,-3.836979 -4.83425,2.546778 -0.7687,6.175868 0.4477,9.272703 z"
               id="path58"
               sodipodi:nodetypes="ccccc" /><path
               style="opacity:1;fill:#ffff00;fill-opacity:1;stroke:none;stroke-width:0.3;stroke-linecap:round;stroke-linejoin:round;stroke-dasharray:none;stroke-opacity:1;paint-order:stroke fill markers"
               d="m 109.65667,52.363887 c 3.07076,4.24165 6.61218,8.17487 7.16337,13.218202 -0.53405,3.090518 -1.73853,4.182855 -2.62593,5.388848 0.46109,-7.26424 -7.06716,-14.47663 -4.53744,-18.60705 z"
               id="path59"
               sodipodi:nodetypes="cccc" /></g><path
             style="opacity:1;fill:#ff4906;fill-opacity:1;stroke:none;stroke-width:0.3;stroke-linecap:round;stroke-linejoin:round;stroke-dasharray:none;stroke-opacity:1;paint-order:stroke fill markers"
             d="m 90.936433,120.03354 28.969197,0.38369 c 4.02801,-3.70949 8.56854,-7.3226 4.34858,-15.15607 -18.00171,-5.742526 -15.38484,-8.934113 -19.4407,-13.109687 -0.42987,3.15485 -0.55792,6.309701 1.53479,9.464547 -2.34139,-1.09401 -4.42782,-3.017682 -5.75547,-6.139165 -0.877906,1.020897 -0.927106,7.845475 -1.342936,11.638845 l -4.604381,-3.70908 c -7.96643,8.85745 -8.17507,-2.29537 -12.02254,-5.947326 0.33597,3.815586 -1.47429,7.563526 3.00563,10.104056 0.0467,2.01544 -1.19028,3.70994 -1.79059,5.56362 z"
             id="path55"
             sodipodi:nodetypes="cccccccccccc" /><path
             style="opacity:1;fill:#ff8703;fill-opacity:1;stroke:none;stroke-width:0.3;stroke-linecap:round;stroke-linejoin:round;stroke-dasharray:none;stroke-opacity:1;paint-order:stroke fill markers"
             d="m 90.443035,120.81297 30.749085,-0.20282 c 0.087,-0.52005 -0.95358,-0.41543 0.7015,-1.79949 2.46721,-2.0632 0.82879,-5.73536 -0.70794,-7.83542 -0.95189,2.06974 -1.45918,4.13948 -3.68603,6.20922 -3.25578,-2.40931 -6.51157,-4.52645 -9.76735,-6.78288 0.78013,1.43103 1.68063,2.89214 1.80877,4.16017 -8.30475,-6.20869 -8.68216,-11.69672 -13.023145,-17.545079 0.64096,4.710929 -2.68978,7.201599 2.323041,14.805429 -3.363141,-0.56808 -5.474071,-2.42563 -7.308121,-5.2144 -1.60124,3.7969 1.5924,7.59381 4.26158,11.39071 -4.164785,-2.61936 -11.478489,-4.30228 -10.67175,-8.20342 -3.33113,5.37246 0.10837,7.35587 3.90049,9.35732 0.66913,0.35317 0.74165,1.29006 1.41987,1.66066 z"
             id="path54"
             sodipodi:nodetypes="ccscccccccccsc" /></g><g
           id="g21"
           transform="translate(54.459409,48.364128)"><path
             style="fill:#612f25;fill-opacity:0.996078;stroke-width:1.045;stroke-linecap:round;stroke-linejoin:round;paint-order:stroke fill markers"
             d="m -2.6073875,142.06928 c 1.02319,-0.68213 29.4168465,37.82623 29.4168465,37.82623 0.87302,0.54885 2.47928,2.02015 7.03446,0.89529 L 77.20179,169.91936 c 3.37534,1.04196 7.3278,-1.58457 9.08086,-2.81379 l 32.74223,-6.77866 c 0.21231,-1.06583 -1.07617,-2.13165 -2.17429,-3.19748 L 1.6132895,138.83982 l -0.214592,0.23652 c -1.45553504,-0.11238 -3.968314,2.02595 -4.006085,2.99294 z"
             id="path5"
             sodipodi:nodetypes="cccccccccc" /><path
             style="fill:url(#linearGradient35);fill-opacity:1;stroke-width:1.045;stroke-linecap:round;stroke-linejoin:round;paint-order:stroke fill markers"
             d="m 1.3460625,139.20799 4.860175,-4.22068 3.8369815,-3.19748 c 18.714045,-6.15131 32.146175,-7.40505 38.241901,-2.30219 -4.247204,-8.5022 16.30587,-4.21041 26.85886,-3.70908 l 40.16039,27.75416 c 0.72875,1.82862 -1.87972,4.27564 2.17429,5.49967 l -8.82505,1.66269 c -7.2358,-0.38574 -21.20094,2.2373 -26.60307,6.52286 0.7214,-0.22216 2.01511,-5.18519 1.7906,-7.92976 -1.92609,2.83554 -5.39076,5.63232 -4.2154,8.778 -9.36906,-3.19496 -26.06991,5.29981 -45.153746,10.1511 -5.81222,0.67677 -5.25802,-1.03387 -5.88337,-2.30219 z"
             id="path4"
             sodipodi:nodetypes="cccccccccccccc" /><path
             style="fill:#f3ecd6;fill-opacity:1;stroke-width:0.3;stroke-linecap:round;stroke-linejoin:round;stroke-dasharray:none;paint-order:stroke fill markers"
             d="m 11.894636,130.71312 c 11.345947,-2.02409 25.367435,-8.69401 36.323414,-1.53479 -4.249043,-9.09781 18.15054,-3.68597 27.11466,-3.5967 l 39.49895,27.58237 c -8.83947,-0.67632 -18.15546,-0.60811 -30.80179,4.66378 -14.00312,-1.07648 -27.37032,5.1602 -40.927795,9.20875 z"
             id="path7"
             sodipodi:nodetypes="ccccccc" /><rect
             style="mix-blend-mode:normal;fill:#615025;fill-opacity:0.463504;stroke-width:0.0799631;stroke-linecap:round;stroke-linejoin:round;stroke-dasharray:none;paint-order:stroke fill markers;filter:url(#filter20)"
             id="rect17"
             width="45.970825"
             height="0.83537364"
             x="112.99313"
             y="71.059021"
             transform="matrix(0.78343613,0.6214723,-0.56979887,0.82178419,0,0)" /></g></g></g></g></svg>
